<svg
    xmlns="http://www.w3.org/2000/svg"
    viewBox="0 0 400 330"
    id="vector">
    <path
        id="path"
        d="M 238.787 103.125 C 238.787 46.171 185.333 0 119.393 0 C 53.454 0 -0.001 46.171 -0.001 103.125 C -0.001 150.51 37.001 190.431 87.41 202.508 L 52.882 250.051 L 139.565 204.784 C 195.898 196.505 238.787 154.141 238.787 103.125 Z"
        fill="#9fbb59"/>
    <path
        id="path_1"
        d="M 161.213 183.074 C 161.213 126.119 214.667 79.949 280.607 79.949 C 346.546 79.949 400.001 126.119 400.001 183.074 C 400.001 230.459 362.999 270.38 312.59 282.457 L 347.118 330 L 260.435 284.733 C 204.102 276.453 161.213 234.09 161.213 183.074 Z"
        fill="#7f6127"/>
    <path
        id="path_2"
        d="M 91.527 95.679 C 91.527 100.08 92.057 104.022 93.118 107.505 C 94.178 110.95 95.698 113.877 97.678 116.289 C 99.692 118.7 102.131 120.556 104.994 121.857 C 107.857 123.12 111.092 123.752 114.697 123.752 C 118.302 123.752 121.519 123.12 124.347 121.857 C 127.21 120.556 129.631 118.7 131.611 116.289 C 133.625 113.877 135.163 110.95 136.223 107.505 C 137.284 104.022 137.814 100.08 137.814 95.679 C 137.814 91.315 137.284 87.412 136.223 83.967 C 135.163 80.484 133.625 77.537 131.611 75.126 C 129.631 72.676 127.21 70.82 124.347 69.557 C 121.519 68.256 118.302 67.605 114.697 67.605 C 111.092 67.605 107.857 68.256 104.994 69.557 C 102.131 70.82 99.692 72.676 97.678 75.126 C 95.698 77.537 94.178 80.484 93.118 83.967 C 92.057 87.412 91.527 91.315 91.527 95.679 Z M 158.227 153.318 L 145.131 153.318 C 143.222 153.318 141.508 153.05 139.988 152.514 C 138.503 151.978 137.125 150.983 135.852 149.529 L 125.407 136.956 C 121.979 137.836 118.409 138.277 114.697 138.277 C 108.794 138.277 103.421 137.205 98.579 135.062 C 93.736 132.88 89.583 129.895 86.119 126.106 C 82.655 122.317 79.969 117.82 78.06 112.614 C 76.187 107.409 75.25 101.764 75.25 95.679 C 75.25 89.593 76.187 83.967 78.06 78.8 C 79.969 73.595 82.655 69.098 86.119 65.309 C 89.583 61.52 93.736 58.554 98.579 56.41 C 103.421 54.229 108.794 53.138 114.697 53.138 C 120.6 53.138 125.973 54.229 130.815 56.41 C 135.658 58.554 139.793 61.539 143.222 65.366 C 146.686 69.155 149.355 73.652 151.228 78.858 C 153.137 84.024 154.091 89.631 154.091 95.679 C 154.091 99.353 153.738 102.874 153.031 106.242 C 152.359 109.572 151.369 112.71 150.062 115.657 C 148.754 118.566 147.146 121.264 145.237 123.752 C 143.328 126.24 141.172 128.421 138.768 130.297 L 158.227 153.318 Z"
        fill="#ffffff"/>
    <path
        id="path_3"
        d="M 291.848 189.926 L 283.524 164.436 C 283.029 163.097 282.498 161.528 281.933 159.729 C 281.403 157.93 280.89 155.978 280.395 153.873 C 279.9 156.016 279.37 158.007 278.805 159.844 C 278.275 161.642 277.762 163.212 277.267 164.551 L 268.996 189.926 L 291.848 189.926 Z M 318.57 221.559 L 306.216 221.559 C 304.838 221.559 303.707 221.215 302.823 220.526 C 301.975 219.799 301.338 218.88 300.914 217.77 L 295.718 201.868 L 265.072 201.868 L 259.876 217.77 C 259.523 218.727 258.904 219.607 258.021 220.411 C 257.137 221.176 256.024 221.559 254.68 221.559 L 242.221 221.559 L 272.283 138.258 L 288.56 138.258 L 318.57 221.559 Z"
        fill="#ffffff"/>
</svg>
